<svg id="Layer_1" data-name="Layer 1" xmlns="http://www.w3.org/2000/svg" viewBox="0 0 1365 910"><defs><style>.cls-1{fill:#b35d8e;}.cls-2{fill:#ffb9c6;}.cls-3{fill:#ffe5e3;}.cls-4{fill:#bb76a3;}.cls-5{fill:#ffd9d4;}.cls-6{fill:#ffbec7;}.cls-7{fill:#ae4d87;}.cls-8{fill:#a66897;}.cls-9{fill:#f58fb6;}.cls-10{fill:#a75a8b;}.cls-11{fill:#6e0067;}.cls-12{fill:#6b0066;}.cls-13{fill:#e583ac;}.cls-14{fill:#e886af;}.cls-15{fill:#ffcacb;}.cls-16{fill:#bf79a6;}.cls-17{fill:#9d6d9d;}.cls-18{fill:#740066;}.cls-19{fill:#87006c;}.cls-20{fill:#ffd6d3;}.cls-21{fill:#750067;}.cls-22{fill:#9f4281;}.cls-23{fill:#ffa8c1;}.cls-24{fill:#a62f7c;}.cls-25{fill:#9c2b79;}.cls-26{fill:#981c76;}.cls-27{fill:#f593ba;}.cls-28{fill:#4e0060;}.cls-29{fill:#a14b85;}.cls-30{fill:#ffe1de;}.cls-31{fill:#9b6191;}.cls-32{fill:#ca7fab;}.cls-33{fill:#a05d8c;}.cls-34{fill:#891171;}.cls-35{fill:#530061;}.cls-36{fill:#ffdad7;}.cls-37{fill:#901e74;}.cls-38{fill:#d080ab;}.cls-39{fill:#a976a5;}.cls-40{fill:#992978;}.cls-41{fill:#ffbbc9;}.cls-42{fill:#ffa9c0;}.cls-43{fill:#a474a3;}.cls-44{fill:#9a6797;}.cls-45{fill:#df86af;}.cls-46{fill:#984782;}.cls-47{fill:#fff4f0;}.cls-48{fill:#9a6e9e;}.cls-49{fill:#fc9fbe;}.cls-50{fill:#41005d;}.cls-51{fill:#e15792;}.cls-52{fill:#c94586;}.cls-53{fill:#cd6994;}.cls-54{fill:#c173a1;}.cls-55{fill:#ffbac3;}.cls-56{fill:#b95f8f;}.cls-57{fill:#c66d9a;}.cls-58{fill:#ffccc9;}.cls-59{fill:#feabb9;}.cls-60{fill:#febcbc;}.cls-61{fill:#f98eb1;}.cls-62{fill:#ff9eb8;}.cls-63{fill:#83006b;}.cls-64{fill:#f06f9d;}.cls-65{fill:#da739d;}.cls-66{fill:#f485aa;}.cls-67{fill:#ea81aa;}.cls-68{fill:#fec1be;}.cls-69{fill:#a70774;}.cls-70{fill:#9d0072;}.cls-71{fill:#ffa1b5;}.cls-72{fill:#c03180;}.cls-73{fill:#a7287b;}.cls-74{fill:#ad3c81;}.cls-75{fill:#b0177a;}.cls-76{fill:#bb4c88;}.cls-77{fill:#aa1b7a;}.cls-78{fill:#d5749e;}.cls-79{fill:#e73d8d;}.cls-80{fill:#f55493;}.cls-81{fill:#e26497;}.cls-82{fill:#f05e98;}.cls-83{fill:#da6795;}.cls-84{fill:#ffaab6;}.cls-85{fill:#ff9eb3;}.cls-86{fill:#fdabb4;}.cls-87{fill:#f781a4;}.cls-88{fill:#fc80a3;}.cls-89{fill:#e16a98;}.cls-90{fill:#fb679a;}.cls-91{fill:#f2649a;}.cls-92{fill:#ea5494;}.cls-93{fill:#fe8ba7;}.cls-94{fill:#f377a0;}.cls-95{fill:#ed78a2;}.cls-96{fill:#b70b77;}.cls-97{fill:#ad0074;}.cls-98{fill:#c92880;}.cls-99{fill:#cc2b80;}.cls-100{fill:#cc4b89;}.cls-101{fill:#bb1d7c;}.cls-102{fill:#d52986;}.cls-103{fill:#dc5b92;}.cls-104{fill:#fd81a3;}.cls-105{fill:#fd95ab;}.cls-106{fill:#fe8da7;}</style></defs><path class="cls-1" d="M415,910H383c-7.73-3.74-13.7-9.89-20.27-15.14-22.23-17.78-44.25-35.8-66.41-53.65Q252.6,806,209,770.51c-1.55-1.26-3.26-2.3-4.77-3.64-.77-.72-1.63-1.39-1.56-2.62a2.63,2.63,0,0,1,1.11-1.24c9.9-3.23,20.3-3.73,30.47-5.3,24.2-3.75,48.44-7.28,72.66-10.89,33.12-4.94,66.22-10,99.34-14.87,19.45-2.88,38.92-5.62,58.29-9,3.14-.55,6.33-.18,9.44-.81a3.67,3.67,0,0,1,1.67.36,2,2,0,0,1,.87,1.37c-.69,5.67-3.08,10.86-4.86,16.2C456,787.35,440.83,834.75,425.17,882c-2.3,6.94-4.81,13.83-6.74,20.9C417.73,905.45,417.1,908.1,415,910Z"/><path class="cls-2" d="M0,375V324c5.83-6.06,13.32-9.89,20.11-14.6,38.68-26.79,77.25-53.74,116.12-80.25,2-1.39,4.6-5.22,7.11-.22a29.78,29.78,0,0,1,.51,7.47c0,71.3.33,142.6-.22,213.89-.13,16.77-.17,33.62-1.32,50.38-.65,2.81-2.28,3.06-4.34,1.46-2.49-1.94-5-3.86-7.31-6C110,476.51,88.78,457.57,68,438.19c-15-13.94-30.15-27.68-45-41.73C15.32,389.27,7.31,382.51,0,375Z"/><path class="cls-3" d="M0,64V50c9.29-7,19.12-13.15,28.83-19.49q19-12.39,37.78-25A76.48,76.48,0,0,1,76,0h98a7.34,7.34,0,0,1,1.77,5.05q.14,2.75.06,5.49c-.65,24.26.68,48.51,1.27,72.74.72,29.72,2,59.43,1.74,89.16,0,3.67.77,7.28.54,10.93a6.11,6.11,0,0,1-.32,1.64c-2.67,3.58-5.14.86-7.24-.57q-11.55-7.91-23-15.92C109.6,141.14,70.2,114.05,31,86.65,22.28,80.54,13.44,74.58,4.79,68.34A22.24,22.24,0,0,1,0,64Z"/><path class="cls-4" d="M1157,0h86c1.56,2.15.81,4.51.53,6.77-3.34,26.92-7,53.81-10.32,80.73-2.18,17.51-4.58,35-6.59,52.52-.31,2.64-1.43,5.14-1.26,7.85a6.25,6.25,0,0,1-.4,1.72,4.12,4.12,0,0,1-1.06,1.39c-.24.16-.49.31-.74.46a3.94,3.94,0,0,1-1.67.2c-12.82-3-25.34-7.06-38-10.71q-52.58-15.19-105.12-30.47c-12.8-3.71-25.55-7.6-38.4-11.13-1.76-.49-3.55-1-4.78-2.5-1.4-3.3,1.41-4.42,3.24-5.84q20.47-15.88,41-31.74,35.28-27.3,70.48-54.68A48.21,48.21,0,0,1,1157,0Z"/><path class="cls-5" d="M142,227c-6.48,4.33-13,8.54-19.41,13q-13.83,9.72-27.82,19.21c-8,5.39-15.73,11-23.72,16.42-6.88,4.62-13.58,9.51-20.39,14.23Q28,305.57,5.18,321.2c-1.6,1.1-3,2.68-5.18,2.8V68c2.08-1.37,3.05.45,4.09,1.56,10.82,11.72,21.31,23.74,32,35.6q18.84,20.93,37.55,42c16.26,18.22,32.78,36.21,48.93,54.54,6.7,7.6,13.68,15,20.43,22.53a2.72,2.72,0,0,1,.45,1.35A1.75,1.75,0,0,1,142,227Z"/><path class="cls-6" d="M436,0h79c9.15,5.5,16.93,12.81,25.3,19.33C561.65,36,582.66,53.1,604,69.84c2.15,1.69,4.94,2.94,5.62,6.06a3.24,3.24,0,0,1-.44,1.39c-5.26,4.39-11.28,7.64-17.08,11.18q-63.49,38.7-126.85,77.6c-4.73,2.88-9,7-14.88,7.7a2.37,2.37,0,0,1-1.94-2.43c-1-19.46-3.2-38.83-4.68-58.24-1.44-18.76-3.23-37.48-4.63-56.24C437.86,40.43,436.26,24,434.79,7.6,434.55,5,433.94,2.27,436,0Z"/><path class="cls-7" d="M415,910c.63-5,2.55-9.62,4-14.35,5-15.68,10.32-31.23,15.28-46.92,5.87-18.53,12.34-36.87,18.39-55.34,6.62-20.22,13-40.53,19.66-60.73,1-2.93,1.75-6.06,3.63-8.66,2-1.45,3.48.07,4.95,1q43.43,26.64,86.74,53.44c13.45,8.32,27,16.48,40.38,24.9,1.54,1,3.29,1.69,4.13,3.49a2.32,2.32,0,0,1,0,1.45c-7,5.38-14.94,9.32-22.49,13.86q-69.2,41.53-138.37,83.08A38.4,38.4,0,0,1,441,910Z"/><path class="cls-8" d="M203,765a2.23,2.23,0,0,1,2,1c8.86,10,15.53,21.61,23,32.63,23.6,34.92,46.87,70.07,70.19,105.18,1.19,1.79,3.44,3.48,1.83,6.19H216c-19.27-4.75-37.49-12.6-56.17-19.1C135,882.25,110.32,873,85.49,864.27c-5.45-1.92-11.2-3.29-16.15-6.51l-.45-.63a1.73,1.73,0,0,1,0-1.46c8-7,17.21-12.45,26-18.46q50.74-34.86,101.48-69.73C198.3,766.15,200.11,764,203,765Z"/><path class="cls-9" d="M776,0H897c1.91,2,2,4.59,1.79,7.06-1.54,21.24-.1,42.56-1.8,63.8a23,23,0,0,0-.11,2.49c.56,20-1,39.9-1.25,59.86-.14,12.62-.75,25.25-.84,37.89A12,12,0,0,1,894,176c-2.15,3-4.14,1.14-5.76-.46-8.41-8.3-17.46-15.9-26.05-24-22.61-21.33-45.55-42.31-68.37-63.43C778.66,74.09,763.59,60,748.44,46c-6.71-6.2-13.37-12.44-19.81-18.91a2.75,2.75,0,0,1,.08-1.45c4-4.15,9.49-5.91,14.35-8.6,8.81-4.89,17.81-9.44,26.57-14.44C771.67,1.47,774.07,1.33,776,0Z"/><path class="cls-10" d="M1365,214v35a14.33,14.33,0,0,1-4.53,5.17c-36.31,27.24-72.36,54.83-108.81,81.88-5.61,4.16-10.92,8.72-16.77,12.54-1.78,1.16-3.67,3-5.11-.43a75.07,75.07,0,0,1-1.38-13.88c.06-12.31-.93-24.57-1.38-36.85-.77-21.07-1.11-42.16-2.63-63.2-.7-9.61-.52-19.25-1-28.88-.72-16.09-1-32.2-2.06-48.28-.14-2.19,0-4.34,1.63-6.06h0c2.25-.71,4.23.12,6.24,1,34.58,15.29,69,31,103.58,46.23,8.54,3.75,17,7.59,25.56,11.39C1360.84,210.72,1363.31,211.78,1365,214Z"/><path class="cls-11" d="M1169,910h-46c-2.43-2.27-3.25-5.38-4.22-8.37-7.49-23.09-15.47-46-23.56-68.9-9.08-25.72-17.45-51.67-26.71-77.32a52.35,52.35,0,0,1-2-6.7c-.36-1.64-.72-3.34,1.21-4.38,2.94-.76,5.6.4,8.25,1.31,44.55,15.36,89.2,30.42,133.8,45.61,14.33,4.87,28.82,9.3,42.88,15a2.51,2.51,0,0,1,.86,1.22c.34,2.32-1.35,3.61-2.6,5.13q-38.12,46.4-76.22,92.82A17.81,17.81,0,0,1,1169,910Z"/><path class="cls-12" d="M1253,808v-1c-1.18-1.41-1-3.07-1-4.75.53-26.46,3-52.82,4-79.25.57-15.63,1.79-31.22,2.43-46.85.85-20.77,2.23-41.53,3.56-62.28.48-7.46-.1-15,1.79-22.34,1.18-2.73,2.73-1.85,4.11-.27a30.23,30.23,0,0,1,3.75,5.9C1286.91,626,1301.77,655,1317,683.88c13.44,25.47,26.66,51,40.12,76.5,3,5.68,6.67,11.12,7.88,17.62v56c-2.16,1.08-4.25.13-6.31-.34-29.91-6.9-59.83-13.72-89.7-20.77-3.88-.92-7.74-1.89-11.64-2.7C1255.82,809.63,1254.15,809.33,1253,808Z"/><path class="cls-13" d="M892,177c1.18-1,1-2.39,1-3.71-.67-19.95,1-39.86,1.24-59.79.2-14.1,0-28.27,1-42.31.94-12.48.48-24.91.71-37.35.21-11.29,1.76-22.53,1-33.84h57a14.86,14.86,0,0,1,4.14,3.49q26.13,31,52.29,62.06c6.22,7.35,12.38,14.74,18.58,22.11,2,2.4,4.31,4.63,5.21,7.79a2.41,2.41,0,0,1,0,1.43c-5.19,5.08-11.85,7.89-18,11.44Q959,141.38,901.77,174.49a47.62,47.62,0,0,1-8,4.08,2.87,2.87,0,0,1-1.44-.27A1.18,1.18,0,0,1,892,177Z"/><path class="cls-14" d="M0,678V636c9.67-10.77,20.69-20.17,31.18-30.08,7.24-6.83,14.48-13.71,21.7-20.55,16.52-15.65,33.14-31.2,49.49-47,11.33-11,23-21.56,34.41-32.5,1.07-1,2.1-2.19,3.82-2.11a2.79,2.79,0,0,1,1.24,1.09,5.46,5.46,0,0,1,.55,1.7c1.25,6.52-.83,12.92-.59,19.4.75,20-.76,39.9-1.21,59.83-.47,21.09-1.25,42.19-1.8,63.28-.06,2.5-.06,5-1.86,7.07-4.16,2.82-9.05,3.15-13.79,3.89-37.51,5.84-75,12-112.46,18C7.18,678.61,3.55,680.16,0,678Z"/><path class="cls-15" d="M436,0c.4,6.44,1,12.86,1.76,19.27.58,5.1.64,10.25,1.12,15.37.58,6.27,1,12.54,2,18.76a24.74,24.74,0,0,1,.14,3c.34,11.1,1.71,22.11,2.75,33.15.54,5.76,1.07,11.56,1.22,17.36.26,9.29,1.85,18.46,2.34,27.74.57,10.89,2.15,21.74,2.66,32.66.08,1.6.49,3.37-1,4.7-2.45.78-4.1-1-5.88-2q-54.57-32.2-109-64.61c-2.43-1.45-5-2.72-7.41-4.13-1.15-.88-2.75-1-3.78-2-.63-1.68.5-2.78,1.31-4,15-22.55,29.61-45.36,44.22-68.18,5-7.84,10.47-15.39,15.17-23.43A16.2,16.2,0,0,1,387,0Z"/><path class="cls-16" d="M0,820V758a12,12,0,0,1,3.37-3.6c33-24.53,65.67-49.51,98.74-73.94,9.1-6.73,18-13.79,27.19-20.35,2.1-1.5,4-4.14,7.32-2.68,1,2,.16,3.88-.48,5.78-16.35,48.7-33.14,97.25-49.52,145.94-4.56,13.55-8.84,27.2-13.75,40.63C72,852.12,71.25,854.52,69,856v0c-2.3,1.57-4.18,0-6-1-16.31-8.62-32.65-17.2-48.75-26.2C9.41,826.11,3.64,824.74,0,820Z"/><path class="cls-17" d="M1224,150c0-.34,0-.67,0-1,2.5-8.41,7.68-15.44,12-22.84,23.81-40.46,47.43-81,71.39-121.4A16.35,16.35,0,0,1,1311,0h54V116c-2,2.64-5.08,3.08-7.94,3.76-21.18,5-42.29,10.39-63.47,15.44-20.53,4.9-41,10-61.51,15C1229.35,150.88,1226.64,152,1224,150Z"/><path class="cls-18" d="M1068,745c-1.37,3.28.67,6.16,1.64,8.86,4,11.08,7.39,22.36,11.42,33.42,4.26,11.68,7.66,23.66,12.07,35.26,4.49,11.8,8,23.93,12.69,35.65,2.58,6.42,3.82,13.38,6.47,19.76,4,9.69,6.07,20,10.38,29.6A8.84,8.84,0,0,1,1123,910H981c-1-3,1-5.13,2.15-7.39,17.47-33.35,34.39-67,51.62-100.47,9.76-19,19.63-37.87,29.17-56.94a4.74,4.74,0,0,1,1.61-1.54,3.12,3.12,0,0,1,1.45-.23C1067.75,743.68,1068.3,744.07,1068,745Z"/><path class="cls-19" d="M1065,745c-.17,2.07-1.37,3.73-2.27,5.5-10.6,20.94-21,42-32,62.73-6.47,12.21-12.26,24.76-18.9,36.87-7.77,14.16-14.47,28.86-22,43.11-3,5.58-6,11.13-8.82,16.78H937a12.12,12.12,0,0,1-3.47-4.8c-9.43-21.33-18.77-42.7-28.35-64-1.14-2.53-2.73-5.06-1.92-8.09.83-2,2.54-3,4.31-4,29.45-15.83,58.66-32.12,88-48.1,21.19-11.52,42.27-23.26,63.5-34.72C1060.88,745.4,1062.6,743.46,1065,745Z"/><path class="cls-20" d="M325,96l-2,3c.3.85-.16,1.4-.74,1.91-44.93,27.28-89.82,54.64-134.95,81.58-2.94,1.75-5.33,4.64-9.14,4.73a.81.81,0,0,1-.39-.78q.08-.45.21-.45v-1c4.91-17,12.8-32.8,19.54-49.06q26.81-64.57,53.91-129c1.08-2.57,1.67-5.5,4.55-6.89h19c2.54,1.37,3.43,4,4.62,6.31q20.85,41.34,41.49,82.78C322.29,91.47,324,93.53,325,96Z"/><path class="cls-21" d="M1365,778a66.1,66.1,0,0,1-6.29-11.2c-3.26-6.74-7.09-13.16-10.35-19.9-3.54-7.32-7.95-14.24-11.39-21.61-4.3-9.18-9.46-17.88-13.94-27-6.16-12.51-13-24.7-19.46-37.06-4.84-9.25-9.3-18.72-14.46-27.8-4.86-8.53-8.7-17.58-13.78-26-2.91-4.84-5-10.16-8-14.93A5.55,5.55,0,0,0,1265,590a2,2,0,0,1,.11-2.64,7.74,7.74,0,0,1,5.48-2c13.58-.43,27.14-1.28,40.7-2.14,15.55-1,31.11-1.68,46.65-2.66,2.5-.16,5-.46,7.06,1.45Z"/><path class="cls-22" d="M441,910c8.8-6,18.1-11.09,27.18-16.58Q497,876,525.8,858.77q26.06-15.63,52.12-31.24c9.4-5.63,18.76-11.33,28.16-16.95,1.84-1.1,3.68-2.31,5.9-2.59,1.57,1,2,2.59,2.34,4.23,4.33,22.53,8.93,45,13.24,67.54,1.56,8.16,3.19,16.31,4.7,24.49.36,1.93,1.16,3.9-.26,5.75Z"/><path class="cls-23" d="M141,504h-1c-6.07,2.88-12.69,2.32-19.07,2.68-24.2,1.34-48.4,2.55-72.6,3.88-12.93.71-25.87,1.28-38.79,2.14-3.24.21-6.71.74-9.55-1.72V375c4.16,1.55,7.15,4.8,10.1,7.78,6.32,6.38,13.19,12.16,19.7,18.33,8.55,8.1,17.29,16,26,24s17.35,15.94,26,24c8.26,7.69,16.6,15.29,24.92,22.92,8.68,8,17.53,15.74,25.94,24,2.59,2.54,5.6,4.64,8.42,6.95l.3.31v.44Z"/><path class="cls-24" d="M632,910c-2.5-10.27-4.13-20.71-6.16-31.07q-2.16-10.93-4.31-21.87c-2.86-14.74-6.2-29.38-8.58-44.22-.27-1.62-.65-3.23-1-4.85,0-.33,0-.66,0-1l.69-.7c2-1.16,4.15-1.17,6.31-1.12,33.93.66,67.82-1.46,101.75-1.1,18,.19,35.92.69,53.85-.88a21.46,21.46,0,0,1,8.9.68c.8.36,1.53.79,1.57,1.81-5.1,5.58-11.78,9.12-17.86,13.39q-53.51,37.63-107.05,75.24c-6,4.21-12,8.44-17.88,12.77-1.93,1.43-4.2,1.9-6.27,2.9Z"/><path class="cls-25" d="M1365,396v74c-2.47,7-8.2,11.6-12.76,17-20.1,23.74-40.06,47.61-60.31,71.22-7.26,8.46-14.16,17.22-21.74,25.4-1.26,1.35-2.34,4.3-5,1.6-.8-2-.32-4,.14-5.9,7.15-30.84,14.63-61.6,21.62-92.48,6.22-27.46,12.93-54.81,19.07-82.29.8-3.58,2-7.06,2.93-10.6a4,4,0,0,1,1-1.46,5,5,0,0,1,1.69-.73c4.67-.78,9.32.21,13.91.63,11.29,1,22.65.2,33.89,1.75C1361.42,394.41,1363.44,394.49,1365,396Z"/><path class="cls-26" d="M784,806l1-1,.71-.41c6.8-.4,13,2.28,19.46,3.79q44.65,10.53,89.27,21.18a34.28,34.28,0,0,1,7.62,2.27,3.19,3.19,0,0,1,1.13,1c-.08,3.13-2.82,3.94-4.81,5.18q-33,20.7-66.09,41.32c-14.41,9-28.84,18-43.2,27-2.27,1.44-4.72,2.39-7.07,3.61H731c-1.7-2.72.32-4.8,1.4-6.87,8.85-16.92,17.51-33.94,26.44-50.82,7.06-13.35,13.65-26.95,20.94-40.18A49.31,49.31,0,0,1,784,806Z"/><path class="cls-27" d="M0,511c10.15.61,20.22-1,30.34-1.27,5.76-.16,11.59-.32,17.36-.79,13.39-1.1,26.81-1.42,40.22-2.09,12.07-.61,24.13-1.47,36.22-2.05,5.28-.25,10.56-.8,15.87-.78a103.7,103.7,0,0,1-14.52,14.28,16.3,16.3,0,0,0-1.89,1.62c-9.31,10-19.7,18.81-29.5,28.26-7.65,7.38-15.07,15-23,22-6,5.27-11.39,11.15-17.3,16.48-13.07,11.79-25.7,24-38.38,36.23C11.33,626.82,7,630.51,3,634.47A4.38,4.38,0,0,1,0,636Z"/><path class="cls-28" d="M1257,809a21.23,21.23,0,0,1,5.42.62c12.33,3.36,24.85,5.92,37.26,9,20,4.93,40.09,9.06,60.15,13.58A45.31,45.31,0,0,1,1365,834v49c-2.66,6.39-7.6,11.15-11.94,16.29-3.15,3.74-5.17,8.6-10.06,10.71h-58a8.23,8.23,0,0,1-2.64-4.12q-14.2-45.2-28.13-90.47a16.74,16.74,0,0,1-.88-3.89C1253.19,808.72,1254.43,807.87,1257,809Z"/><path class="cls-29" d="M1311,393l-1,0c-2.77,1.05-4.82-.81-6.9-1.94-20.11-11-40.31-21.78-60.33-32.92-3.77-2.09-7.82-3.67-11.36-6.19a2.65,2.65,0,0,1-.71-1.29l.3-.69c13.38-10,26.88-19.87,40.09-30.09,13.48-10.43,27.32-20.39,40.71-30.95,6.23-4.91,12.79-9.43,19.12-14.23q17-12.91,34.08-25.71v37c-1.14,7.77-5.67,14.15-9.13,20.85-13.73,26.65-26.81,53.62-40.37,80.36C1314.38,389.43,1313.46,391.81,1311,393Z"/><path class="cls-30" d="M256,0q-5.92,14-11.86,28-7.54,17.91-15.06,35.84c-4.35,10.43-8.64,20.88-13,31.31-5.69,13.65-11.43,27.28-17.12,40.93-5.36,12.88-10.61,25.81-16.09,38.65C181.4,178.2,180.44,182,178,185c-2-19.76,0-39.61-1.22-59.36-.66-11,.17-22-.93-32.87-1.39-13.65.16-27.32-1-40.88-1.48-17.31-.36-34.6-.85-51.89Z"/><path class="cls-31" d="M1224,150a21.07,21.07,0,0,0,4.45-.36c8.74-2.6,17.67-4.44,26.52-6.62,19.46-4.8,38.92-9.66,58.43-14.26,13.87-3.26,27.55-7.25,41.55-10,3.4-.66,6.71-1.85,10.06-2.79v98c-4.42-1.88-8.86-3.71-13.26-5.65-14.12-6.21-28.28-12.31-42.29-18.75-7.4-3.41-14.8-6.77-22.26-10-12-5.25-24-10.65-36-16L1223,151Z"/><path class="cls-32" d="M1157,0c-2.35,3.84-6.45,5.63-9.8,8.28-10.64,8.42-21.24,16.91-32.09,25-14,10.53-27.67,21.58-41.67,32.16-12.41,9.37-24.54,19.13-36.91,28.57A9.81,9.81,0,0,0,1035,96l-.51.34L1034,96h0c-2.56-5.26-2-11-2.5-16.59-2-22.77-3.1-45.61-5.12-68.39-.32-3.68-1.06-7.67,1.64-11Z"/><path class="cls-33" d="M300,910c0-1.84-1.36-3-2.24-4.36Q284.27,885,270.55,864.52c-14.83-22-29.45-44.2-44.36-66.17q-9.76-14.4-19.46-28.84c-.74-1.09-1.76-2-1.73-3.51,7.22,4.73,13.46,10.74,20.34,15.92,6.61,5,13.14,10.1,19.34,15.57,7.7,6.82,16,12.87,23.87,19.49,7.21,6.08,14.69,11.86,22,17.79,8.37,6.77,16.7,13.58,25.07,20.36,1.28,1,2.64,2,4,3,8.28,6.35,16.33,13,24.34,19.67,11.71,9.75,24.08,18.7,35.35,29,1.21,1.1,3.06,1.47,3.71,3.21Z"/><path class="cls-34" d="M782,910c2-2.8,5.17-4.13,7.93-5.89,12.76-8.1,25.63-16,38.47-24,17.22-10.71,34.52-21.28,51.61-32.18,7.69-4.91,15.8-9.19,23-14.89a.78.78,0,0,1,1,0c-.14,3,1.51,5.42,2.6,8,4.52,10.49,9.47,20.79,14,31.28C926,884.85,932.09,897.17,937,910Z"/><path class="cls-35" d="M1257,809c-2.16-.08-3,.52-2.2,2.94,3.31,10.28,6.46,20.6,9.63,30.92Q1274.73,876.42,1285,910H1169c7.52-9,15.12-18,22.56-27.11,8.07-9.87,15.74-20.07,24.06-29.72,7.36-8.54,14.24-17.46,21.62-26,5.41-6.25,10.52-12.78,15.76-19.19C1254.39,808.1,1255.93,807.62,1257,809Z"/><path class="cls-36" d="M178,186v1c-1.39,4.08-4.89,6.58-7.52,9.67-7.72,9-15.81,17.77-23.8,26.58-1,1.06-1.83,2.49-3.68,1.75-.63-.2-1.54-.2-1.83-.62-2.68-3.86-6.57-6.62-9.39-10.3-4.36-5.68-9.65-10.48-14.25-15.93-7.58-9-15.54-17.68-23.41-26.43-3.11-3.45-6.21-6.93-9.39-10.29-5-5.3-9.72-10.9-14.79-16.17-6.3-6.55-11.89-13.8-17.91-20.63-3.62-4.11-7.54-7.92-11.13-12.08-7.92-9.15-16.13-18-24.16-27.09-5-5.71-10.1-11.44-15.36-17C1.08,68.17.47,68.15,0,68V64c5.68,2.15,10,6.45,14.94,9.72C24.5,80,33.66,86.91,43.08,93.42c12.29,8.49,24.46,17.14,36.73,25.65,7.77,5.38,15.65,10.62,23.4,16,12.91,9,25.66,18.33,38.75,27.11,7.72,5.18,15.2,10.7,23,15.77,2.77,1.81,5.46,3.77,8.15,5.71A9.93,9.93,0,0,0,178,186Z"/><path class="cls-37" d="M1266,586c3.13-2,4.81-5.42,7.35-8a119.77,119.77,0,0,0,10.87-12.93c3-4,6.54-7.48,9.71-11.32,6.84-8.31,14-16.39,20.76-24.74,4.61-5.65,9.58-11,14.33-16.53,3.89-4.53,7.69-9.12,11.52-13.7,4.79-5.71,9.54-11.45,14.36-17.14,3.32-3.91,6.73-7.75,10.1-11.62V582c-9.86,1.24-19.85.33-29.69,1.89a6.71,6.71,0,0,1-1.49.08c-8.8-.57-17.59.53-26.27,1.33-8.24.76-16.56-.22-24.75,1.53-3.18.68-6.62.23-9.94.15a22.4,22.4,0,0,0-7.85,1l-.49.4-.6-.23a1.56,1.56,0,0,1-.18-1.23A2.3,2.3,0,0,1,1266,586Z"/><path class="cls-5" d="M325,96c-2.79-.12-3.23-2.54-4.16-4.39-9.39-18.7-18.65-37.46-28.12-56.1C287.33,24.89,282.4,14,276.48,3.68A27.45,27.45,0,0,1,275,0H387c-1.18,3.88-3.8,7-5.93,10.27-13.64,21.22-27.49,42.3-41.23,63.46-4.42,6.82-8.68,13.75-13.06,20.6A9.48,9.48,0,0,1,325,96Z"/><path class="cls-38" d="M136,657c-9.06,6.42-17.82,13.22-26.65,19.94-6.59,5-13.32,9.85-19.95,14.82q-17.1,12.81-34.23,25.56c-9.83,7.32-19.72,14.55-29.54,21.89-6.23,4.67-12.37,9.45-18.54,14.2A37,37,0,0,1,0,758V678l136-22a.76.76,0,0,1,1.12-.15,1.51,1.51,0,0,1,0,1.28A.8.8,0,0,1,136,657Z"/><path class="cls-39" d="M1311,0c-1.65,6.05-5.77,10.78-8.77,16.1-6.44,11.41-13.14,22.67-19.78,34-5.71,9.73-11.5,19.41-17.21,29.14-6.64,11.3-13.2,22.64-19.83,33.94q-7.19,12.24-14.47,24.4c-2.3,3.82-4,8-6.94,11.45a165.45,165.45,0,0,1,2.36-21.2c1-6.54,1.52-13.13,2.58-19.66,2-12.06,2.73-24.29,4.75-36.37,1-6.32,1.35-12.83,2.35-19.19,1.43-9.15,1.91-18.4,3.67-27.52a183.91,183.91,0,0,0,2.21-19.21c.17-2,.75-3.9,1.08-5.85Z"/><path class="cls-40" d="M784,806c-.54,3-2.12,5.61-3.64,8.13-4.38,7.27-7.74,15-11.69,22.52-9.58,18.18-19.12,36.37-28.44,54.69-3.15,6.19-6.89,12.07-9.23,18.66H636c11.43-8.2,22.83-16.45,34.31-24.58q26.79-19,53.68-37.77,20.55-14.43,41.19-28.73C771.43,814.58,777.33,809.74,784,806Z"/><path class="cls-41" d="M609,76c-4.86-4.73-10.42-8.61-15.7-12.83Q579.17,51.85,565,40.55c-7-5.56-14-11-21-16.57Q530.57,13.36,517.22,2.65A16.85,16.85,0,0,1,515,0H640c1,1.88.13,3.58-.57,5.25-8.91,21.54-17.12,43.35-25.91,64.93-.81,2-1.31,4.16-3,5.65A1.47,1.47,0,0,1,609,76Z"/><path class="cls-42" d="M610,76c2.53-8.63,6.46-16.72,9.64-25.1,3.94-10.41,8.15-20.72,12.29-31C634.57,13.21,637.3,6.61,640,0h61c4.64,2.66,8.47,6.35,12.35,10,4.25,4,8,8.4,12.66,12,1.46,1.11,2.8,2.43,2.39,4.59-.65,2-2.45,2.63-4.12,3.33Q670.18,52.53,616,75c-1.67.69-3.35,1.51-5.26,1.35Z"/><path class="cls-43" d="M0,820c4.42,2.22,8.92,4.3,13.26,6.67,13.5,7.4,27,14.78,40.69,21.86,5,2.58,9.63,5.82,15.06,7.5v1c0,.24,0,.48,0,.72-3.74,9.1-10,16.75-14.82,25.21-4.63,8-10,15.59-14.83,23.54A9.27,9.27,0,0,1,36,910H0Z"/><path class="cls-44" d="M69,857c7.72,1.93,14.95,5.3,22.48,7.76C101.41,868,111.06,872,121,875.24c10.54,3.5,20.86,7.63,31.31,11.4,9.95,3.59,20,7,29.91,10.58,7.8,2.79,15.59,5.6,23.3,8.59,3.52,1.36,7.41,1.81,10.52,4.19H77c-3-4.3-2.76-9.49-3.55-14.3-1.73-10.46-3.6-20.89-5-31.4-.33-2.46-.59-4.93.59-7.29Z"/><path class="cls-45" d="M1028,0a243.67,243.67,0,0,0,1.86,30.18,140.88,140.88,0,0,1,.94,14.33c0,7.48.87,14.9,1.45,22.29.44,5.55.39,11.2,1.49,16.76.79,4,.21,8.28.24,12.43-7.78-9.43-15.48-18.93-23.53-28.15S995.27,49.07,987.28,40c-6.47-7.31-12.54-14.95-18.94-22.32C963.37,12,958.17,6.4,954,0Z"/><path class="cls-46" d="M1311,393q18.95-37.89,37.92-75.76c5.26-10.46,10.71-20.82,16.08-31.23V396c-9.77-.39-19.55-.73-29.29-1.26C1327.49,394.29,1319.18,394.27,1311,393Z"/><path class="cls-47" d="M76,0c-.75,1.58-2.15,2.43-3.56,3.35C60.8,11,49.37,18.89,37.6,26.32,26.83,33.12,16.41,40.47,5.78,47.5,4,48.65,2.44,50.37,0,50V0Z"/><path class="cls-48" d="M69,857c1.55,9.64,3.34,19.26,4.59,28.91,1,8,3.52,15.89,3.41,24.08H36c3.34-7.24,8.11-13.64,12.31-20.36,6.13-9.82,12.29-19.61,18.25-29.53A31,31,0,0,1,69,857Z"/><path class="cls-49" d="M728,26c-1.22-2.53-3.87-3.51-5.75-5.32-6.29-6.07-12.27-12.47-19-18A17.8,17.8,0,0,1,701,0h75c-2.44,3.16-6.26,4.32-9.53,6.12C754.1,13,741.51,19.41,729,26,728.67,26.49,728.33,26.49,728,26Z"/><path class="cls-50" d="M1343,910q10.57-13.25,21.17-26.48a3,3,0,0,1,.83-.52v27Z"/><path class="cls-51" d="M476,723l-1,0a4.33,4.33,0,0,1-1.1-1.6,21.23,21.23,0,0,1-.7-5.43c.63-20-.8-39.94-1.24-59.91-.42-19,0-38-1-56.9-.79-15.16-.5-30.29-.74-45.43-.09-6.16-1.4-12.25-1-18.43.13-2.33,0-4.67.72-6.92,1-2.35,2.87-2.47,5-2a33.93,33.93,0,0,1,5.18,1.84c50.29,20.06,100.69,39.88,151,59.95,10.83,4.32,21.65,8.66,32.56,12.8a3.9,3.9,0,0,1,1.67,1.62c.06.25.12.5.19.75a2.31,2.31,0,0,1-.53,1.4c-10.47,7.68-21.8,14.06-32.74,21-37.06,23.6-74.29,46.91-111.42,70.4Q501.13,708.59,481.51,721C479.82,722.07,478.12,723.13,476,723Z"/><path class="cls-52" d="M476,723c10.9-6.95,21.78-13.94,32.7-20.85q32.84-20.73,65.69-41.4,20.64-13,41.21-26.11,23.76-15.06,47.53-30.08A7,7,0,0,1,665,604c1.67,2.43.42,4.86-.18,7.18-8.79,34.35-17.79,68.65-26.76,103-7.63,29.15-15.14,58.33-23,87.43-.55,2.07-.8,4.33-3.07,5.43l0,0c-9.08-4.89-17.64-10.63-26.42-16q-31.91-19.46-63.68-39.1-21.21-13.06-42.37-26.2C478.4,725,477.46,724,476,724,476,723.67,476,723.35,476,723Z"/><path class="cls-53" d="M475,722c0,.33,0,.66,0,1-3.35,1.83-7.16,1.14-10.73,1.79-12.86,2.35-25.81,4.19-38.75,6.07s-25.85,4-38.79,5.81c-10.49,1.46-21,3-31.47,4.52-9.32,1.35-18.69,2.52-28,4.4-7.6,1.54-15.42,2-23.09,3.37-5.06.88-10.16,1.5-15.24,2.23-11.14,1.62-22.28,3.2-33.41,4.85-4.75.7-9.47,1.63-14.22,2.33-8.51,1.26-17,2.42-25.55,3.66-4.26.62-8.51,1.32-12.76,2a1.72,1.72,0,0,1-.34-1.42c12.6-25.33,25.6-50.46,38.62-75.58,6.51-12.56,12.38-25.45,19.47-37.72,1.15-2,1.85-4.34,4.31-5.27,2.43-.7,4.58.3,6.76,1.12q48.35,18.24,96.75,36.36c35.09,13.1,70.11,26.38,105.19,39.53A12.63,12.63,0,0,1,475,722Z"/><path class="cls-54" d="M203,763c0,.33,0,.67,0,1s0,.65,0,1c-9.71,5.45-18.41,12.41-27.7,18.5-9.56,6.28-18.82,13-28.24,19.48q-33.82,23.22-67.66,46.41C76,851.71,73,854.69,69,856c3.8-10.09,7-20.35,10.39-30.59,2.72-8.35,5.77-16.59,8.6-24.91,3.2-9.44,6.23-18.93,9.47-28.35,5.34-15.55,10.89-31,16.16-46.6q10-29.47,19.64-59.06c1-3.12,3.17-5.94,2.74-9.48l1,0c3.31.13,4.08,3.08,5.36,5.18,11.26,18.48,22.65,36.89,33.93,55.35Q188.67,737.77,201,758C202,759.56,203.19,761,203,763Z"/><path class="cls-55" d="M142,227l1-1a8.59,8.59,0,0,1,5.69-1.42c20.84,2.14,41.77,3.25,62.62,5.33,6.94.69,14,.11,20.8,2.07a3.46,3.46,0,0,1,1.37,1.11,4.29,4.29,0,0,1,.5,1.63c-1.82,9-5.2,17.54-8.23,26.17-10.65,30.34-20.85,60.83-31.29,91.25q-25.14,73.28-50.11,146.61c-.59,1.75-.62,4.11-3.35,4.24v0c-.7-28.76,1.22-57.49,1.09-86.25C141.8,353.47,142,290.24,142,227Z"/><path class="cls-56" d="M1223,151c.4,9.78.67,19.6,1.29,29.35.48,7.64,0,15.3.8,22.88,1,10.29.21,20.64,1.13,30.86.7,7.66,0,15.33.91,22.88,1.13,9.3,0,18.65,1.06,27.86,1,8.66,0,17.32,1,25.88.87,8.31.27,16.63,1.06,24.87.46,4.81.72,9.58.8,14.39h0c-2.11.79-3.49-.67-4.87-1.74-26.27-20.39-52.85-40.36-79.16-60.69-25.78-19.93-51.73-39.64-77.66-59.36a52.57,52.57,0,0,1-6.62-5.29,4.49,4.49,0,0,1-1-2c0-.26,0-.52,0-.77a3.08,3.08,0,0,1,1-1.14c17-8,34.44-15.2,51.71-22.69q48.84-21.21,97.66-42.4c3.15-1.38,6.19-3.37,9.91-2.9Z"/><path class="cls-57" d="M1222,151q-18.26,8-36.5,16c-8.82,3.85-17.67,7.66-26.5,11.5q-16.44,7.16-32.88,14.33c-9,3.89-18,7.7-27,11.62-11.42,5-22.8,10.05-34.21,15a12.57,12.57,0,0,1-2.92.52c-2.34-1.3-2.62-3.74-3.14-5.95-4.6-19.73-8.82-39.53-13.14-59.32-3.72-17-7.74-34-11.24-51.07-.54-2.61-1.35-5.21.52-7.64v0c6.34,2,12.66,4,19,5.82q19.11,5.63,38.23,11.11c21.2,6.09,42.42,12.09,63.6,18.24,15.45,4.48,30.84,9.17,46.28,13.71,4.93,1.46,9.9,2.75,14.86,4.11C1218.74,149.47,1220.59,149.69,1222,151Z"/><path class="cls-58" d="M233,233c-8.23-.7-16.49-1-24.73-1.75-5.43-.47-10.92-.72-16.32-1.37-6.74-.81-13.56-.39-20.26-1.68-4.05-.77-8.25-.53-12.36-.88-5.43-.47-10.84-1.6-16.33-1.32v-1c3.76-4,7.87-7.66,11.19-12,3.77-4.88,8.28-9.06,12.26-13.73,3.62-4.26,6.64-9.22,11.55-12.31q19.74-12.12,39.48-24.22,22.11-13.5,44.25-26.94c6.54-4,13.21-7.67,19.75-11.62,12.22-7.37,24.38-14.83,36.58-22.23,1.26-.77,2.28-2,3.94-2,1.54,2.23-.24,3.79-1.26,5.34-14.38,21.78-29.32,43.19-43.7,65-11.62,17.62-23.52,35-35.19,52.64C239.4,226.65,237.94,231.43,233,233Z"/><path class="cls-59" d="M451,173q13.39-8.12,26.79-16.23,23.13-14.11,46.23-28.29Q541.2,118,558.34,107.39c13.56-8.32,27.09-16.69,40.75-24.86,3.23-1.94,5.93-4.9,9.9-5.54.18.2.36.4.55.59.88,2,0,3.92-.56,5.81-15.16,51.18-31.24,102.08-46.29,153.29-.66,2.23-1.29,4.48-2.94,6.25-2.93,1.94-5.12-.18-7.23-1.56q-24.25-15.8-48.4-31.77Q478.93,193,453.68,176.42a9.9,9.9,0,0,1-2.79-2.06A1.07,1.07,0,0,1,451,173Z"/><path class="cls-60" d="M451,173v1c.29,1.8-.7,3.22-1.47,4.67-17.14,32.17-34,64.49-51.47,96.47-3.2,5.85-5.64,12.09-9.27,17.69-1,1.51-1.57,3.92-4.33,3.08-2.77-3.3-3.67-7.45-4.87-11.39-15.72-52-31.93-103.79-47.63-155.77-2.4-8-5.1-15.85-7.34-23.87-.54-1.95-2.12-5.09,2.38-4.88,11,5.47,21.17,12.39,31.79,18.52,14.2,8.21,28.24,16.68,42.35,25.06Q425.08,157.77,449,172A2.21,2.21,0,0,0,451,173Z"/><path class="cls-42" d="M609,76q.5,0,1,0h0a.85.85,0,0,1,.28.74c0,.27-.1.4-.16.4A.81.81,0,0,1,609,77l0,0C609,76.66,609,76.33,609,76Z"/><path class="cls-61" d="M892,177v1l-.65.66c-4.45,1.75-8.93.2-13.31-.22q-62.64-6-125.3-11.93c-13.59-1.28-27.18-2.54-40.77-3.89a14,14,0,0,1-6.65-1.9,4.22,4.22,0,0,1-1.14-1.38c-.82-2-.42-3.93-.06-5.89,6.41-35,12.69-70.1,19.21-105.12,1-5.24,1.51-10.55,2.74-15.74.51-2.13.93-4.26,2.93-5.59a13.13,13.13,0,0,1,4.17,2.68c6.36,7,13.73,13,20.63,19.53,10.17,9.55,20.44,19,30.61,28.53,7.26,6.8,14.74,13.39,22.07,20.12,10,9.21,19.7,18.81,29.85,27.88q13.2,11.78,26,24C872,159,882.09,167.92,892,177Z"/><path class="cls-62" d="M729,27c-2,10.37-4,20.74-6,31.13-1.85,10.06-3.54,20.16-5.34,30.23-2.57,14.29-5,28.61-7.85,42.85-1.62,8.09-2.41,16.34-4.54,24.34A19.68,19.68,0,0,0,705,159c-3,1.57-4.8-.76-6.45-2.3-13-12.15-26.65-23.66-39.94-35.51q-22.36-19.95-44.91-39.69c-1.49-1.3-3.38-2.25-3.69-4.5V76l25.68-10.77q11.93-5,23.84-10C678,47.51,696.63,40,715,32c4.34-1.89,9.29-2.62,13-6h1Z"/><path class="cls-63" d="M1264,588l1,0c0,.66,0,1.32,0,2-1.07,9.22-.4,18.57-1.9,27.76a13,13,0,0,0-.08,3c.65,9.83-.7,19.6-1.22,29.37-.69,13.08-1.43,26.15-2,39.25-.46,11.41-1.26,22.84-2.09,34.24-.46,6.31.06,12.68-.9,18.87-1.25,8.08.11,16.29-1.77,24.28a1.39,1.39,0,0,0,0,.5c.58,8.49-1.43,16.87-1.08,25.37.2,4.81.24,9.64-1,14.37-5.17-.62-9.88-2.82-14.75-4.45-19-6.36-38-12.91-57.08-19.36q-25.9-8.81-51.83-17.56-24-8.18-48.07-16.45c-4.39-1.51-8.67-3.34-13.27-4.18-.33-.34-.67-.67-1-1-.59-2.79,1.76-3.71,3.34-5q34.37-27,68.72-54,59.91-47.06,119.84-94.09C1260.44,589.69,1261.87,588.18,1264,588Z"/><path class="cls-64" d="M892,178l1,0a4.25,4.25,0,0,1,1.11,1.57c1,2.74.77,5.6.59,8.4-1.1,17.59-1.29,35.22-2,52.82-.85,21.26-1.41,42.53-2.1,63.8-.47,14.44-1.12,28.89-1.81,43.33a15.31,15.31,0,0,1-.95,5.37,4.08,4.08,0,0,1-1.24,1.34c-3.64,1.56-7.25.3-10.77-.39-16.33-3.19-32.75-5.87-49.12-8.82-33.89-6.08-67.85-11.82-101.7-18.1a4.65,4.65,0,0,1-1.54-.55,2,2,0,0,1-.88-1.23c2.13-5.89,7.76-8.53,12-12.24,29.37-25.55,58.7-51.15,88.24-76.5,21.47-18.41,42.55-37.27,64.19-55.48A35,35,0,0,1,892,178Z"/><path class="cls-65" d="M893,179v-1q12-7,24.06-14Q942,149.5,967,135c13.79-8,27.68-15.74,41.41-23.8,8.56-5,17.48-9.47,25.61-15.24l1,0c.64,6.93,2.35,13.65,3.89,20.42,4.09,18.06,8.07,36.14,12.06,54.23,2.06,9.36,4,18.75,6,28.1,1.58,7.1,3.34,14.16,5,21.23h0a4,4,0,0,1-1.36,1c-2.53.73-5,0-7.36-.63-30.1-7.87-60.31-15.28-90.46-22.9-20.48-5.18-40.92-10.51-61.44-15.51C898.51,181.23,895.38,181.16,893,179Z"/><path class="cls-66" d="M141,505c0-.32,0-.65,0-1l0-.06c5.4-3.87,11.85-3,17.85-3.55,25.51-2.36,51-4.5,76.55-6.81,20.05-1.82,40.12-3.36,60.16-5.25a17.65,17.65,0,0,1,5.47.25,4.9,4.9,0,0,1,1.65.73,2.38,2.38,0,0,1,.9,1.45c-1.71,11.17-5,22-7.66,33q-12.65,52.34-25.72,104.57c-1.2,4.82-1.63,9.86-4.19,14.27-2.37,2.16-3.93.42-5.39-1.23-9.36-10.58-18.81-21.07-28.08-31.73-13.52-15.55-27.21-30.95-40.79-46.44-13.8-15.74-27.7-31.4-41.45-47.17C147.13,512.4,143.46,509.21,141,505Z"/><path class="cls-67" d="M141,505c.63.2,1.48.2,1.85.62q8.88,10.08,17.66,20.24c2.49,2.89,5.17,5.6,7.62,8.55,5.93,7.15,12.41,13.83,18.55,20.81s12.08,14.1,18.22,21.08,12.24,13.54,18.27,20.4c5.46,6.23,10.8,12.57,16.17,18.89,3.44,4,7.31,7.68,10.74,11.78,4,4.83,8.3,9.48,12.34,14.32A3.49,3.49,0,0,0,265,643c.08.29.15.58.22.87a4.38,4.38,0,0,1-1.52,1c-5.59,2.73-11.73,2.23-17.62,2.75-20,1.76-40,3.74-60.09,5.5-14.57,1.27-29.1,3-43.71,3.86-1.85.11-3.67.24-5.27-.94h-1a8.28,8.28,0,0,0,1-4.31c-.69-15.95,1.21-31.82,1.1-47.77-.1-14.25.44-28.54,1.19-42.76.62-12,.42-23.88.63-35.81C140.06,518.53,141.65,511.83,141,505Z"/><path class="cls-68" d="M327,100c-2.26.35-1.92,1.71-1.4,3.32,1.38,4.27,2.65,8.57,4,12.85q9.85,32.13,19.72,64.25c3.85,12.53,7.82,25,11.56,37.61,5.72,19.24,12.15,38.27,17.57,57.61,1.93,6.86,4.37,13.57,6.58,20.36a.94.94,0,0,1-.57,1.23c-6.12-.55-11.38-3.61-16.86-5.91q-63.85-26.73-127.72-53.4c-2.44-1-5.11-1.66-6.85-3.92v-1c5.61-7.18,10.42-14.91,15.39-22.54,7-10.7,14.31-21.14,21.42-31.74,9.15-13.64,18.05-27.44,27.38-40.95,7.74-11.19,15.24-22.54,22.82-33.84.81-1.21,2-2.26,2-3.92l1-1C324.4,99.1,325.93,98.61,327,100Z"/><path class="cls-69" d="M904,833h-1l0,0a9.33,9.33,0,0,1-2.94-4.53c-10.65-29.78-21.13-59.62-31.77-89.41-11.75-32.92-23.34-65.9-35.16-98.8-1.26-3.52-3.44-6.92-2.43-11,2.6-2.14,4.75-.09,6.84.93,17.34,8.51,34.55,17.27,51.91,25.74,44.28,21.62,88.6,43.17,132.78,65,14.62,7.22,29.44,14,43.83,21.69a1,1,0,0,1,0,1.37l-1,1c-7.93,4.16-15.91,8.23-23.79,12.5-8,4.35-16,8.94-24,13.36Q997.18,782,977,793c-12.26,6.69-24.59,13.27-36.84,20S916.06,826.31,904,833Z"/><path class="cls-70" d="M1066,744c0-.34,0-.67,0-1a2.58,2.58,0,0,1-.54-1.55c2.25-13.45,5.8-26.61,8.92-39.86,5.92-25.07,11.73-50.16,17.63-75.23,3.91-16.65,7.88-33.3,11.77-50,.57-2.41,1.06-4.94,3.58-6.29,4.5-1.55,8.91,0,13.31.5q55.52,5.92,111,11.82c9.09,1,18.19,1.86,27.27,2.91,2,.23,4,.54,5,2.63l0,0c-1.58,2.92-4.62,4.27-7,6.22-10.16,8.25-20.56,16.19-30.92,24.19-18.09,14-35.87,28.35-54,42.26-16.69,12.8-33,26.14-49.48,39.18-6.5,5.14-13.15,10.09-19.66,15.2q-15.45,12.12-30.79,24.37c-1.78,1.43-4.17,2.23-5.15,4.57h-1Z"/><path class="cls-71" d="M302,490a136.22,136.22,0,0,0-21.23,1.83,35.74,35.74,0,0,1-5,.18c-6.3,0-12.51,1-18.74,1.78-4.27.51-8.61.89-12.85,1-9.62.28-19.09,1.91-28.69,2.36-11.37.53-22.73,1.72-34.07,2.95-7.89.86-15.83,1.22-23.7,2.06-5.58.6-11.22.74-16.74,1.82,0-.33,0-.65,0-1,2.23-3.91,3.18-8.31,4.63-12.5,7.48-21.67,14.74-43.41,22.13-65.12q13-38.19,26.1-76.35c4.77-14,9.49-28,14.27-42q12.09-35.35,24.24-70.7A13.77,13.77,0,0,1,233,235c3.55.82,3.5,4.09,4.18,6.59q8.2,30.12,16.37,60.26c12.18,45.17,24.61,90.27,36.69,135.47,3.78,14.15,7.75,28.25,11.55,42.4.56,2.09,1,4.23,2.47,5.94C305.25,488,303.81,489.11,302,490Z"/><path class="cls-72" d="M612,807q5.38-20.41,10.78-40.84c3.91-14.74,7.86-29.46,11.71-44.22,3.35-12.82,6.54-25.69,9.86-38.53Q654.65,643.69,665,604v0a1.43,1.43,0,0,1,1.38-.19c2.41,1.53,3.14,4.24,4.49,6.49,33.4,55.87,66.32,112,99.57,168,5,8.44,10.23,16.77,14.93,25.39A1.59,1.59,0,0,1,785,805h0c-36.39,1.52-72.82.17-109.19,1.28C654.52,806.93,633.26,806.46,612,807Z"/><path class="cls-73" d="M1266,586a2.19,2.19,0,0,1-2,1c-7.77-4.11-13.46-10.78-19.82-16.55q-23.78-21.57-47.6-43.13c-16.38-14.8-32.63-29.73-49.14-44.39a11.73,11.73,0,0,1-2.38-2.54A2,2,0,0,1,1145,479a5.55,5.55,0,0,1,2.15-2q77.78-40.64,155.57-81.24c2.23-1.16,4.38-3.34,7.33-1.68a16.18,16.18,0,0,1-.2,3c-6,23.57-11.33,47.29-16.79,71-4.75,20.64-9.39,41.32-14.2,61.95-2.93,12.57-6.28,25-9.06,37.64C1268.4,573.67,1266,579.6,1266,586Z"/><path class="cls-74" d="M1310,394c-5.7,1.48-10.4,5.06-15.61,7.55-9,4.3-17.59,9.34-26.42,13.94-11.36,5.93-22.79,11.71-34.16,17.61-16.39,8.5-32.82,16.94-49.12,25.62-11,5.86-21.89,11.94-33.08,17.46-1.48.73-2.87,1.71-4.6,1.83-1-2.89,1.14-4.7,2.46-6.67,16.72-25,33-50.28,49.75-75.28,9-13.54,17.88-27.22,27-40.73,1.19-1.77,1.81-4.48,4.82-4.34,4.09,1,7.7,3.16,11.25,5.23,9.89,5.77,20.08,11,30.11,16.46,12.52,6.84,24.89,13.94,37.64,20.33Z"/><path class="cls-75" d="M785,805c0-.33,0-.66,0-1-1.25-2.28-.47-4.55.11-6.78q16.2-63,32.63-126.05c3.2-12.23,6.28-24.48,9.56-36.68.55-2.05.85-4.31,2.94-5.57l.82.12c3.61,12.28,8.52,24.11,12.64,36.22,2.41,7.06,5.07,14,7.55,21.08,6.64,18.8,13.21,37.63,19.86,56.43Q882,773.54,893,804.29c3.4,9.55,7.22,18.94,10,28.68-10.12-1.8-20-4.6-30-7-21.29-5-42.61-10-63.9-15C801,809.09,793,807,785,805Z"/><path class="cls-76" d="M1231,351c-4.48,5.57-8.11,11.73-12.07,17.66-9.76,14.62-19.36,29.34-29.06,44q-20.58,31.14-41.2,62.28A34.87,34.87,0,0,0,1147,478a2.3,2.3,0,0,1-2,1l-.7-.39c-2.65-3-3-7-4.19-10.58q-22.75-70.6-45.42-141.22c-10.4-32.51-21.09-64.93-31.34-97.48-.69-2.19-1.86-4.35-.9-6.77l.54-.59c10.75,7.48,20.93,15.71,31.28,23.71,8.39,6.49,17,12.71,25.41,19.15,7.23,5.53,14.32,11.25,21.53,16.81,5.78,4.45,11.66,8.77,17.47,13.17,13.2,10,26.52,19.86,39.56,30.07Q1214.48,337.63,1231,350C1231,350.32,1231,350.66,1231,351Z"/><path class="cls-77" d="M1145,480a4.27,4.27,0,0,1,3,1.53c2.47,2.46,5.15,4.69,7.8,7,5.67,4.86,10.89,10.24,16.44,15.24,8.25,7.43,16.66,14.71,25,22.09,4,3.54,7.78,7.25,11.68,10.84,5.37,5,10.92,9.72,16.2,14.78,8.15,7.78,17.06,14.78,25.18,22.58,4.54,4.36,9.87,7.89,13.72,13,0,.32,0,.63,0,1-3.89-1.77-8.22-1.47-12.21-1.66-8.11-.4-16.09-1.86-24.16-2.5-7.37-.59-14.77-1.46-22.13-2.48-4.7-.66-9.51-1.1-14.31-1.39A184,184,0,0,1,1171,577.7c-5.24-.91-10.54-.65-15.77-1.59-5-.91-10.18-.92-15.22-1.9-3.1-.6-6.26-.39-9.39-.68-7.9-.73-15.68-2.55-23.64-2.51a.74.74,0,0,1-1.24-.16c2.2-8.4,6.23-16.08,9.56-24q13.52-32.25,27.25-64.4a6,6,0,0,1,.63-1.33,3.76,3.76,0,0,1,1.1-1Z"/><path class="cls-78" d="M137,656c7.2-1.15,14.5-1.32,21.74-2,9.22-.88,18.41-2.15,27.65-2.73,4.8-.3,9.58-.92,14.34-1.42,5.75-.61,11.57-.43,17.3-1.55,4-.78,8.23-.53,12.36-1.13,10.81-1.57,21.81-1.3,32.61-3.12a13.33,13.33,0,0,1,2,0c.25.22.34.44.25.66s-.16.34-.25.34c-2.78,4.89-5.74,9.68-8.3,14.69-12.31,24.12-24.34,48.38-36.85,72.4-4.76,9.13-9.41,18.32-14.13,27.48-.68,1.32-1.17,2.79-2.71,3.44-4.55-5.35-7.57-11.68-11.25-17.58-7.29-11.69-14.45-23.46-21.64-35.21q-13.77-22.51-27.51-45A55.19,55.19,0,0,0,137,657Z"/><path class="cls-79" d="M666,604l-1,0c0-.32,0-.65,0-1-.19-2.15,1-3.79,2-5.55q25.28-46.56,50.82-93c17.9-32.56,35.43-65.32,53.63-97.71,1.78-3.17,2.85-6.79,5.61-9.4a4.87,4.87,0,0,1,1.61-.63c15.8-1.26,31.52.48,47.26,1.24,7.29.36,14.61.88,21.88,1,18.44.39,36.85,1.37,55.23,2.44,12.09.7,24.29-.14,36.28,2.13A6.87,6.87,0,0,1,941,404l.74.44a2.14,2.14,0,0,1,.73,1.42c-.13,2.24-1.35,4.08-2.31,6Q887.29,517.51,834.46,623.23c-.89,1.77-1.54,3.72-3.26,5-.5.22-1,.42-1.53.61-2.26,1.13-4.58.55-6.87.21-30.66-4.54-61.27-9.38-91.91-14-18.78-2.82-37.54-5.78-56.33-8.6C671.62,606,668.56,605.86,666,604Z"/><path class="cls-80" d="M777,398c-2,6.8-6.4,12.36-9.46,18.62-2.48,5.06-5.54,9.83-8.25,14.78q-14.71,26.88-29.38,53.79c-6.44,11.82-12.79,23.68-19.27,35.48-8.48,15.42-17.25,30.7-25.49,46.25-4.83,9.1-10,18-14.71,27.18A53.05,53.05,0,0,1,665,603l-1-1a30.61,30.61,0,0,1-6.65-5.2c-15.5-15.56-31.44-30.7-46.47-46.71-16.17-17.24-33.38-33.44-49.59-50.61C557,495,551.93,491,549.35,485a3.17,3.17,0,0,1,.48-1.39,6.35,6.35,0,0,1,1.79-1.38,7.25,7.25,0,0,1,1.41-.59c45.73-17.91,91.72-35.11,137.61-52.59C717.08,419,743.47,408.75,770,398.83,772.2,398,774.44,396.27,777,398Z"/><path class="cls-81" d="M475,722h-1c-6.26-3.78-10.27-9.86-15.08-15.08q-12.66-13.74-25.14-27.67c-12.17-13.65-24.68-27-36.87-40.62-8-8.92-16.09-17.72-24.21-26.51-1.46-1.58-3.28-2.86-4.1-5a2.62,2.62,0,0,1,.16-1.41c8.9-8.25,18.84-15.2,28.34-22.69q33.82-26.68,67.71-53.25c1.69-1.33,3.25-2.9,5.57-3.07l.65.3c.44,21.12.52,42.26,1.27,63.36.58,16.14-.32,32.3.86,48.36,1,14-.14,28,1,41.87S474.54,708.22,475,722Z"/><path class="cls-82" d="M550,484c0,1.49,1,2.41,1.89,3.39,7.44,7.84,14.59,16,22.41,23.44q7.05,6.74,13.79,13.79c24.11,25.34,49,49.91,73.69,74.68A33.45,33.45,0,0,1,664,602c-5.07-.45-9.52-2.91-14.12-4.69-14.41-5.54-28.67-11.48-43-17.2q-40.71-16.23-81.46-32.38-24.54-9.75-49.09-19.45c-1.67-.66-3.38-1.47-5.29-1.25l0,0c-.11-.22-.22-.44-.34-.66a2.8,2.8,0,0,1,.71-1.28c10.33-6.69,21.45-12,32.28-17.8q20.88-11.16,41.72-22.4a9.25,9.25,0,0,1,3.24-1.23A2.38,2.38,0,0,1,550,484Z"/><path class="cls-83" d="M369,607a57.42,57.42,0,0,1,10.14,10.23,33.78,33.78,0,0,0,2.61,3c9.47,9.78,18.49,20,27.34,30.29,1.41,1.64,3.1,3,4.55,4.64,8.78,9.72,17.51,19.5,26.31,29.21,3.68,4.06,7.61,7.86,11.15,12.07,5,6,10.67,11.39,15.94,17.15,2.46,2.69,4.66,5.61,7,8.42-4.78-.25-8.87-2.73-13.21-4.3C446,712.34,431.25,706.6,416.5,701c-11.79-4.47-23.48-9.21-35.39-13.34-18.66-6.47-36.85-14.16-55.49-20.68-7.18-2.51-14.16-5.58-21.29-8.26q-15.58-5.88-31.25-11.52c-2.62-.93-5.05-2.73-8.08-2.2v-1c1.09-2.14,3.2-2.78,5.24-3.52,23.16-8.46,46.38-16.75,69.58-25.1q11.28-4.07,22.58-8.11C364.53,606.48,366.72,605.19,369,607Z"/><path class="cls-84" d="M304,486c-2.3,1-2.5-.88-2.87-2.2-1.24-4.47-2.29-9-3.52-13.47-2.34-8.47-5-16.86-7.06-25.4-3.11-13.07-7.12-25.89-10.42-38.9-2.56-10.12-5.56-20.14-8.31-30.21-2.85-10.39-5.64-20.79-8.45-31.19q-8.56-31.68-17.12-63.36c-3.58-13.29-7-26.61-10.66-39.88-.6-2.19-1-4.56-2.59-6.38v-1c8.07,2.17,15.45,6.08,23.16,9.14,11.12,4.41,22.11,9.18,33.14,13.81,11.8,4.95,23.58,10,35.38,14.89,10.58,4.42,21.2,8.75,31.79,13.16,9.51,4,19,8,28.5,12l.4.51.09.66c0,.23,0,.45-.07.67a21.32,21.32,0,0,1-.71,2.69q-38.3,89.58-76.58,179.17C307.2,482.76,306.61,485.18,304,486Z"/><path class="cls-57" d="M1061,220h1c0,.34,0,.67,0,1l-.44.31a1.13,1.13,0,0,1-.93-.44A.67.67,0,0,1,1061,220Z"/><path class="cls-76" d="M1062,221l1,1h0c-.88.23-1.2-.1-1-1Z"/><path class="cls-85" d="M610,77c6.36,4.79,12.17,10.21,18.13,15.47,7,6.13,13.69,12.51,20.94,18.31,3.34,2.68,6.51,5.65,9.66,8.57,8.39,7.77,17.19,15.07,25.66,22.74,4.42,4,9.26,7.56,13.27,12A14.74,14.74,0,0,0,705,159c0,.33,0,.67,0,1s-.13.47-.19.71c-5.47,5-12.24,7.94-18.54,11.57q-60.49,34.86-120.93,69.83c-1.72,1-3.35,2.21-5.45,2.31l-.72-.16a.86.86,0,0,1-.38-.81q.08-.45.21-.45,10.2-33.85,20.42-67.71c4.35-14.31,8.92-28.55,13.29-42.86,5.43-17.79,10.75-35.62,16.1-53.44a9.92,9.92,0,0,0,.2-2Z"/><path class="cls-86" d="M559,243v1c-.84,2.48-3.16,2.76-5.18,3.38C510,260.86,466,273.66,422.29,287.31c-10.5,3.28-21.09,6.25-31.58,9.56-1.85.59-3.77,1.6-5.7.14l0,0,0-1a64.53,64.53,0,0,0,5.22-8.42c10.47-20,20.81-40.08,31.55-59.94,9-16.63,17.89-33.29,26.58-50.07A28.18,28.18,0,0,1,451,174c6,1.51,10.32,5.89,15.36,9,7.9,4.9,15.56,10.17,23.29,15.31,7.32,4.87,14.57,9.83,21.9,14.67,5.41,3.56,10.95,6.93,16.37,10.49,7.07,4.63,14.06,9.39,21.12,14C552.21,239.6,555.14,242.14,559,243Z"/><path class="cls-87" d="M892,178c-2.83,4.47-7.54,6.92-11.25,10.46-4.06,3.88-8.5,7.37-12.76,11.05q-10.54,9.07-21.06,18.17c-5.87,5.11-11.66,10.32-17.55,15.41s-11.8,10.14-17.8,15.1c-3.19,2.64-6.11,5.58-9.31,8.23-8.92,7.4-17.24,15.52-26.2,22.87-11,9-21.45,18.73-32.43,27.8-7,5.79-13.65,12.06-20.64,17.9-1.5.87-2.18.19-2.43-1.29-1.08-14.75-3-29.41-4.52-44.11-3.5-33-7.43-66-10.89-99.08-.47-4.46-.87-8.93-1.52-13.37A9.26,9.26,0,0,1,705,160h0c9.19,1,18.37,2.32,27.59,2.79,8.28.42,16.45,1.76,24.7,2.41,5.23.4,10.57.31,15.77,1.56,3.36.8,6.92.58,10.36.9,4.93.47,9.84,1.33,14.83,1.41a123.62,123.62,0,0,1,13.84,1.18c5.9.77,11.79,1.82,17.74,1.67,3.88-.1,7.62.71,11.34,1.23,9.18,1.3,18.46,1.36,27.63,2.7C876.48,177,884.27,177.32,892,178Z"/><path class="cls-88" d="M721,324a2.21,2.21,0,0,0,2,1c0,.33,0,.66,0,1-7.07,8.67-16,15.47-24,23.09-9.31,8.76-18.94,17.2-28.35,25.87-19.79,18.24-39.69,36.36-59.49,54.6-13.93,12.84-27.81,25.73-41.82,38.47-5.63,5.13-10.73,10.91-17.29,15h0c-.52.61-1.48.37-2,1v0h-1l-.69-.66c-1.45-2.82-1.17-5.83-.94-8.81,1-13.94,1.21-27.91,1.81-41.86.91-20.76,1.6-41.53,2.81-62.28.53-9,.52-18,.88-26.92.83-20.77,1.77-41.54,2.51-62.31.4-11.57-.35-23.32,2.4-34.76,1.8-3.27,4.4-2.33,6.88-1.12,4.94,2.41,9.85,4.88,14.76,7.35C622,274,665.05,294.5,707.51,316.15c2.82,1.44,5.83,2.45,8.66,3.87C718.06,321,720.3,321.59,721,324Z"/><path class="cls-89" d="M1061,220l0,1a2.43,2.43,0,0,1-.77,2.65q-42.87,32.67-85.73,65.33c-20.1,15.34-40.29,30.55-60.39,45.88-7,5.35-14,10.7-20.95,16.16-1.68,1.32-3.24,2.91-5.53,3.22L887,354c-.58-13.79.77-27.55,1.3-41.3.42-10.78-.22-21.62.89-32.32,1-9.81,0-19.63,1-29.33.94-9.14,0-18.31,1-27.33.95-8.16.59-16.25.76-24.36.15-6.8,1.67-13.52,1-20.35,5.06-.09,9.78,1.67,14.6,2.8q16.95,3.94,33.79,8.32c6.41,1.67,12.77,3.54,19.24,5,11,2.53,21.88,5.38,32.8,8.16,14.62,3.72,29.22,7.53,43.84,11.27,6.59,1.69,13.2,3.26,19.78,5A16.53,16.53,0,0,0,1061,220Z"/><path class="cls-90" d="M552,483a76.81,76.81,0,0,1,12.38-12.2,21.08,21.08,0,0,0,2.26-2c10.26-10.42,21.61-19.65,32.08-29.85,7.48-7.27,15.42-14.09,23.11-21.17,8.3-7.64,16.53-15.35,24.9-22.91s16.9-15.43,25.28-23.24c7.39-6.89,15-13.58,22.41-20.45,8.53-7.89,17.32-15.48,25.56-23.68a4.42,4.42,0,0,1,3-1.55h1c3.87,2.28,6,6.18,8.55,9.58,13.74,18.33,27.92,36.33,41.61,54.69,1.47,2,3.37,3.75,3.49,6.46A2.71,2.71,0,0,1,777,398h0c-9,2.82-17.78,6.45-26.62,9.82q-23.52,8.94-47,17.92-18.63,7.1-37.25,14.19L620.49,457.3q-19.1,7.27-38.17,14.56c-9.3,3.58-18.57,7.24-27.87,10.81A10.42,10.42,0,0,1,552,483Z"/><path class="cls-91" d="M777,397c-3.07-5.72-7.4-10.54-11.28-15.66-11.39-15-23-29.84-34.14-45C729,332.93,725.9,329.92,724,326c5.22-.36,10.13,1.46,15.18,2.28,13,2.12,26,4.47,39,6.79,10.08,1.8,20.09,4,30.21,5.49,12.91,1.9,25.64,4.83,38.58,6.57,8.33,1.13,16.56,3.08,24.83,4.65,4.7.89,9.34,2.25,14.18,2.23-.1,2.64-2.43,2.91-4.12,3.59q-47.57,19.17-95.33,37.86C783.57,396.63,780.44,398.06,777,397Z"/><path class="cls-92" d="M777,397c5.9-1.15,11.27-3.8,16.81-5.95q23.16-9,46.25-18.23c15.08-6,30.14-12.1,45.2-18.17.29-.11.49-.43.73-.65l1,0v0c4.78,1.94,7.81,6.12,11.45,9.38Q913.08,376.5,927.34,390c3.49,3.31,7.36,6.2,10.7,9.66,1.41,1.46,3.61,2.62,3,5.29-10.1-.79-20.25-.63-30.33-1.21-6-.35-12-.12-17.86-.89-7.63-1-15.32-.14-22.85-1.06s-15.35.1-22.85-1c-8.26-1.21-16.62.28-24.77-1.72a6.13,6.13,0,0,0-1.49-.08c-14.62.37-29.19-1.79-43.83-1C777,397.68,777,397.34,777,397Z"/><path class="cls-93" d="M304,486c5-11.43,10-22.85,14.93-34.3,4.55-10.53,9-21.09,13.53-31.63q9.21-21.56,18.41-43.12,6.75-15.82,13.48-31.65,8.4-19.73,16.84-39.44c.85-2,1.86-3.91,2.8-5.86.64-.52.42-1.46,1-2h0c2.57-1.07,3.4.55,4,2.57,1,7.36,4.5,13.87,7,20.7,24.2,65.37,48.88,130.56,73.35,195.82,1.05,2.8,3.36,5.55,1.67,8.93v0c-1.93,1.33-4,1.3-6.22.82-34.11-7.52-68.2-15.12-102.33-22.53-16.9-3.67-33.76-7.51-50.69-11.05-3.08-.64-6.23-1.16-8.78-3.27l-1,0C302.62,488.64,304.09,487.71,304,486Z"/><path class="cls-94" d="M303,490c4.83.23,9.45,1.68,14.13,2.64,11.84,2.45,23.55,5.53,35.39,8,24.49,5.09,48.88,10.62,73.28,16.09,13.57,3,27.24,5.68,40.77,8.94A27.27,27.27,0,0,0,471,526c0,.32,0,.65,0,1-8,6.17-16,12.31-24,18.51q-10.59,8.22-21.11,16.55-15.4,12.15-30.8,24.32c-4.82,3.8-9.69,7.51-14.52,11.29q-4.49,3.52-8.9,7.15A4.51,4.51,0,0,1,369,606c-2.12-.34-2.82-2.13-3.72-3.7-16.47-28.88-32.79-57.83-49.35-86.65-3.31-5.77-6.45-11.62-9.73-17.4-1.31-2.3-2.84-4.52-3.2-7.25Z"/><path class="cls-95" d="M303,491c3.15,2.24,4.17,6,5.87,9.09,4.37,8,9.05,15.86,13.56,23.79,7.36,13,14.46,26.09,22,38.93,7.41,12.56,13.91,25.64,21.71,38,1.05,1.67,1.89,3.48,2.82,5.22,0,.33,0,.66,0,1-5.84.75-11,3.66-16.49,5.42-7.89,2.52-15.6,5.61-23.4,8.42Q297,632.42,265,644c0-.32,0-.65,0-1q4.85-19.75,9.7-39.49c4.88-19.75,9.85-39.49,14.7-59.25,3.59-14.62,7-29.28,10.58-43.91A43.29,43.29,0,0,1,303,491Z"/><path class="cls-96" d="M1066,742c0,.33,0,.66,0,1-2,.21-3.53-.78-5.18-1.57-9.75-4.66-19.23-9.85-29.15-14.2-7.29-3.19-14.28-7.06-21.43-10.58-23.12-11.42-46.15-23-69.42-34.13-14.4-6.87-28.55-14.26-43-21-21.22-10-42-20.73-63.07-31.09A8.66,8.66,0,0,0,831,629l0,0c-.34-.22-.45-.45-.34-.67s.23-.33.35-.33v0a14.2,14.2,0,0,1,5.22-2.83c50-16.82,100.29-32.95,150.33-49.75.63-.22,1.28-.36,1.93-.55a8.47,8.47,0,0,1,1.59-.23,5.83,5.83,0,0,1,3.78,1c-1.25,3.79-.07,7.12,1.53,10.6,10.49,22.82,21.1,45.6,31.56,68.44q18.3,39.93,36.76,79.79C1064.8,736.81,1066,739.23,1066,742Z"/><path class="cls-97" d="M1066,742c-2.18-2-2.49-5-3.79-7.48-5.38-10.17-9.57-20.87-14.49-31.24-7-14.71-13.54-29.61-20.32-44.41-4.37-9.53-8.86-19-13.23-28.52q-10.39-22.67-20.72-45.37c-1-2.26-2.15-4.48-3.15-6.55.65-2.08,3-.93,3.7-2.42,4.91-3.32,10.68-2.15,16-2.46q14.4-.82,28.86-1.38c18.74-.75,37.48-1.54,56.2-2.72,3.71-.23,7.65-1.25,11,1.53l1,0c-2.92,9.35-4.61,19-7,28.48-1.81,7.23-3.51,14.49-5.21,21.75-1.43,6.13-2.75,12.28-4.19,18.4-2.94,12.59-6,25.17-8.89,37.77-2.32,10-4.21,20.11-6.9,30-3,11.21-5,22.66-8.19,33.82C1066.55,741.54,1066.21,741.75,1066,742Z"/><path class="cls-98" d="M831,628c0,.33,0,.67,0,1-2.32,3.2-2.69,7.12-3.64,10.74-7,26.79-13.56,53.69-20.64,80.45Q799.21,748.57,792,777c-2.27,9-4.67,18-7,27-3.38-2.45-4.71-6.38-6.73-9.73q-17.73-29.38-35.06-59-14.28-24.51-28.89-48.81c-11.56-19.36-22.84-38.9-34.28-58.34-4.7-8-9.94-15.71-14-24.08,6.53-.23,12.83,1.47,19.23,2.3,7.87,1,15.68,2.46,23.52,3.69,10.46,1.63,20.91,3.35,31.4,4.81,13,1.8,25.81,4.14,38.74,6,13.1,1.93,26.19,3.8,39.27,5.88C822.37,627.4,826.63,628.48,831,628Z"/><path class="cls-99" d="M990,576h-1c-2.16-.83-2.72-2.8-3.25-4.73-8.52-30.62-16.64-61.35-25.16-92-5.93-21.32-11.66-42.69-17.68-64-.88-3.08-1.63-6.09-.9-9.29,0-.32,0-.65,0-1,2-1.52,3.86-.24,5.65.42q49.29,17.94,98.53,36c30.49,11.17,61,22.4,91.54,33.32,2.69,1,5.33,1.91,7.25,4.18l0,.06v1h0a13.35,13.35,0,0,0-1,1h0c-7.36,6.63-16.23,11-24.55,16.14Q1058.94,534.5,998.53,572A44.56,44.56,0,0,1,990,576Z"/><path class="cls-100" d="M1145,479q-17.79-6.39-35.58-12.8c-7.49-2.71-14.9-5.63-22.41-8.28-16.9-6-33.69-12.24-50.48-18.52-15.39-5.76-30.9-11.17-46.33-16.81-15.59-5.7-31.13-11.5-46.7-17.25A8.88,8.88,0,0,0,942,405l0,0c-.67-2.49,1.13-4.06,2.25-5.82,11.44-18,23.16-35.8,34.8-53.66q37.68-57.76,75.3-115.54a36.14,36.14,0,0,1,5.66-7c.34-.67.68-1.33,1-2l1,0,1,1c.3,4.38,2.16,8.37,3.43,12.46,5.7,18.24,11.8,36.37,17.7,54.55q9.4,28.94,18.7,57.89,9.24,28.73,18.43,57.48,9.16,28.5,18.37,57C1141.5,467.2,1143.21,473.1,1145,479Z"/><path class="cls-101" d="M990,576c5.56-4.2,11.67-7.56,17.57-11.24q16.25-10.12,32.54-20.2c14.82-9.14,29.69-18.21,44.5-27.37,13.11-8.11,26.18-16.3,39.27-24.46,5.63-3.51,11.23-7,16.87-10.55A6.61,6.61,0,0,1,1144,481c0,3.29-1.82,6-3,8.86-7,16.83-14.1,33.58-21.19,50.36-3.8,9-7.59,18-11.46,27A29.31,29.31,0,0,1,1106,571c-10.44-.26-20.83,1-31.26,1.3-6.41.18-12.92.08-19.3.84-7.94.94-15.94.19-23.79,1.09-6.8.78-13.59.21-20.32.91A159.39,159.39,0,0,1,994,576Z"/><path class="cls-101" d="M1144,481l1-1Z"/><path class="cls-102" d="M942,406c2.59,9.25,5.22,18.49,7.76,27.75s5.31,18.45,7.73,27.71c3.63,14,7.59,27.81,11.37,41.72q5.24,19.19,10.46,38.38c2.56,9.43,5.09,18.86,7.67,28.28.57,2.08,1.33,4.1,2,6.14-15.74,5.32-31.46,10.7-47.23,15.93q-52.71,17.49-105.47,34.84c-1.72.56-3.39,1.44-5.3,1.23.14-1.72,1.1-3.12,1.84-4.6q53.28-106.59,106.58-213.17C940.15,408.74,940.6,407.07,942,406Z"/><path class="cls-103" d="M1060,223c-1.89,5-5.45,9.05-8.32,13.47q-22.89,35.28-46,70.43-13.2,20.22-26.32,40.47Q960.68,376.17,942,405h-1a36.19,36.19,0,0,0-8.49-8.26,8,8,0,0,1-1.53-1.26c-5.89-6.51-12.92-11.83-19.16-18-6.93-6.84-14.38-13.14-21.56-19.72A12.92,12.92,0,0,1,887,354c14.25-10.81,28.28-21.9,42.7-32.5S958,300.15,972,289.33c13.51-10.43,27.23-20.59,40.75-31,10.76-8.27,21.7-16.34,32.29-24.86,3.86-3.11,7.9-6,11.85-9A5.16,5.16,0,0,1,1060,223Z"/><path class="cls-90" d="M550,484a2.18,2.18,0,0,1,2-1A2.15,2.15,0,0,1,550,484Z"/><path class="cls-104" d="M471,526q-7.41-19.82-14.84-39.63Q449.36,468.2,442.5,450c-4.22-11.18-8.24-22.43-12.66-33.54-4.95-12.49-9.36-25.19-14.07-37.77-5.11-13.69-10.31-27.34-15.44-41q-6.18-16.51-12.25-33.09c-.4-1.09-1.59-2.39-.07-3.61,2.29-.69,3.31,1.09,4.45,2.42,22.82,26.66,46,53,69.09,79.45,21.87,25.07,43.53,50.32,65.72,75.11,6.54,7.31,12.53,15.11,19.33,22.21,1.07,1.11,1.48,2.58,2.37,3.78l0,.06a71.74,71.74,0,0,1-8.45,5.2q-25.14,13.26-50.2,26.65c-5.57,3-11,6.14-16.56,9.17A17.13,17.13,0,0,1,471,526Z"/><path class="cls-105" d="M549,484c-5.89-4.22-9.8-10.33-14.67-15.53-2.94-3.14-5.37-6.75-8.32-9.88-7-7.37-13.11-15.44-20-22.83-6-6.45-11.68-13.16-17.42-19.82-7.35-8.55-15.15-16.71-22.06-25.64-2.94-3.8-6.55-7-9.63-10.76-8.32-10.11-17.41-19.57-25.74-29.7-5.48-6.66-11.5-12.87-17.17-19.37-5.12-5.87-10-12-15.21-17.75-3.57-3.9-6.57-8.34-10.74-11.69a2.9,2.9,0,0,0-3-3c0-.33,0-.65,0-1,14.13-4.33,28.24-8.69,42.39-13,17-5.15,34.05-10.21,51.07-15.36,12.56-3.81,25.08-7.76,37.65-11.56s25.47-7.58,38.2-11.4c1.59-.48,3.12-1.15,4.68-1.73v0q.53.33.36.66c-.12.23-.24.34-.36.34-1.92,9.82,0,19.89-1.88,29.72a19.78,19.78,0,0,0-.1,4.49c.57,14.29-1.09,28.53-1.29,42.81-.1,6.74-.08,13.62-.85,20.34-1,9.29-.12,18.63-1.09,27.83-.84,8,.19,16-1,23.84-1.39,9.26.32,18.61-1.71,27.77a17.62,17.62,0,0,0-.09,4.48c.58,14.29-1.29,28.52-1.25,42.82C549.78,474,549.1,479,549,484Z"/><path class="cls-105" d="M385,298a2.15,2.15,0,0,1-1,2A2.21,2.21,0,0,1,385,298Z"/><path class="cls-106" d="M559,245v-1q18.15-10.42,36.3-20.86,14.67-8.46,29.33-17l34.53-19.92c7.92-4.57,15.81-9.16,23.74-13.7,7.35-4.21,14.73-8.37,22.1-12.56-.08,6,.93,11.85,1.71,17.75.58,4.42.51,8.89,1.2,13.34,1.24,8,2,16,2.91,24.08.79,7.22,1.19,14.5,2.27,21.68,1.1,7.36,1,14.82,2.58,22.14a64.82,64.82,0,0,1,1.23,11.32,142.87,142.87,0,0,0,1.86,15.74A124,124,0,0,1,720,299.38a114.9,114.9,0,0,0,1.69,13.76c.52,3.29-.11,6.63.86,9.87.19.62-.85.85-1.5,1-29.66-13.86-58.54-29.33-88.07-43.42-18.9-9-37.49-18.65-56.32-27.78-4.17-2-8.3-4.14-12.44-6.22C562.53,245.77,560.94,244.82,559,245Z"/></svg>
